<svg width="684" height="342" viewBox="0 0 684 342" fill="none" xmlns="http://www.w3.org/2000/svg">
<path d="M3.11366e-05 342C2.72102e-05 297.088 8.84609 252.616 26.0332 211.122C43.2204 169.629 68.4119 131.927 100.17 100.169C131.927 68.4119 169.629 43.2203 211.122 26.0332C252.616 8.84605 297.088 -2.72102e-05 342 -3.11366e-05C386.912 -3.50629e-05 431.384 8.84603 472.878 26.0332C514.371 43.2203 552.073 68.4118 583.83 100.169C615.588 131.927 640.78 169.629 657.967 211.122C675.154 252.616 684 297.088 684 342L342 342L3.11366e-05 342Z" fill="#A60013"/>
</svg>
