<svg width="828" height="414" viewBox="0 0 828 414" fill="none" xmlns="http://www.w3.org/2000/svg">
<path d="M2.48421e-05 414C2.00892e-05 359.633 10.7085 305.798 31.5139 255.569C52.3193 205.34 82.8143 159.701 121.258 121.258C159.701 82.8143 205.34 52.3193 255.569 31.5138C305.798 10.7084 359.633 -2.00892e-05 414 -2.48421e-05C468.367 -2.95951e-05 522.202 10.7084 572.431 31.5138C622.66 52.3193 668.299 82.8143 706.742 121.258C745.186 159.701 775.681 205.34 796.486 255.569C817.292 305.798 828 359.633 828 414L414 414L2.48421e-05 414Z" fill="#DB051E"/>
</svg>
