<?xml version="1.0" encoding="UTF-8" standalone="no"?>
<!-- Created with Inkscape (http://www.inkscape.org/) -->

<svg
   width="800"
   height="800"
   viewBox="0 0 211.66666 211.66667"
   version="1.1"
   id="svg5"
   xml:space="preserve"
   inkscape:version="1.2 (dc2aedaf03, 2022-05-15)"
   sodipodi:docname="favicon.svg"
   xmlns:inkscape="http://www.inkscape.org/namespaces/inkscape"
   xmlns:sodipodi="http://sodipodi.sourceforge.net/DTD/sodipodi-0.dtd"
   xmlns="http://www.w3.org/2000/svg"
   xmlns:svg="http://www.w3.org/2000/svg"><sodipodi:namedview
     id="namedview7"
     pagecolor="#ffffff"
     bordercolor="#666666"
     borderopacity="1.0"
     inkscape:showpageshadow="2"
     inkscape:pageopacity="0.0"
     inkscape:pagecheckerboard="0"
     inkscape:deskcolor="#d1d1d1"
     inkscape:document-units="mm"
     showgrid="false"
     inkscape:zoom="0.60845259"
     inkscape:cx="322.12863"
     inkscape:cy="341.85079"
     inkscape:window-width="1600"
     inkscape:window-height="837"
     inkscape:window-x="1352"
     inkscape:window-y="122"
     inkscape:window-maximized="1"
     inkscape:current-layer="layer1" /><defs
     id="defs2" /><g
     inkscape:label="Capa 1"
     inkscape:groupmode="layer"
     id="layer1"><g
       id="g309"
       transform="matrix(1.5999999,0,0,1.5999999,0,4.5776363e-6)"><circle
         style="fill:#d40000;stroke-width:6.82213;stroke-linecap:square"
         id="path366"
         cx="66.145836"
         cy="66.145828"
         r="66.145836" /><g
         id="g312"
         transform="matrix(5.1491703,0,0,5.1491703,-525.05066,-679.42885)"><path
           d="m 106.0449,152.78648 c -1.18428,-0.49932 -1.67101,-1.51929 -1.48897,-3.12015 0.15848,-1.39374 1.05068,-2.95121 2.21676,-3.86966 0.58589,-0.46149 1.53053,-0.9245 2.22316,-1.08966 0.9271,-0.22108 2.60037,-0.0472 2.97706,0.30941 0.12012,0.11377 0.11324,0.16095 -0.19526,1.342 -0.34637,1.32555 -0.39754,1.46342 -0.54311,1.46342 -0.14589,0 -0.17605,-0.0888 -0.23974,-0.70609 -0.11419,-1.1069 -0.41709,-1.68906 -1.00767,-1.93686 -1.3105,-0.54986 -3.01849,1.20425 -3.50707,3.60178 -0.38722,1.9001 0.0802,3.06226 1.30542,3.24601 0.38169,0.0572 1.01291,-0.0532 1.41418,-0.24749 0.3988,-0.19307 1.09685,-0.89197 1.73958,-1.74167 0.66881,-0.88424 1.1657,-1.32221 1.94225,-1.71189 0.55113,-0.27664 0.68871,-0.31668 1.19671,-0.34827 0.49477,-0.0308 0.6178,-0.0151 0.89244,0.1142 0.48551,0.22833 0.67284,0.54597 0.67284,1.14048 0,0.62376 -0.13679,1.0671 -0.48393,1.5684 -0.55694,0.80383 -1.26312,1.40145 -2.15609,1.82425 -0.41777,0.19791 -0.5371,0.22315 -1.05251,0.22246 -0.48117,-6.1e-4 -0.64016,-0.0301 -0.92318,-0.17095 -0.38592,-0.19208 -0.64664,-0.56978 -0.64852,-0.93948 -6.1e-4,-0.12224 -0.0179,-0.22225 -0.0383,-0.22225 -0.0205,0 -0.2131,0.14618 -0.4281,0.32483 -0.99184,0.82415 -1.55318,1.05243 -2.68028,1.09008 -0.71631,0.0239 -0.82217,0.0112 -1.18766,-0.1429 z m 6.90644,-0.62717 c 0.58738,-0.62261 1.11125,-1.99347 1.11707,-2.92192 0.004,-0.66765 -0.27146,-0.97787 -0.68077,-0.76629 -0.76385,0.39497 -1.68987,3.16934 -1.2618,3.78037 0.17436,0.24905 0.5424,0.20796 0.8255,-0.0922 z"
           fill="#eaeaea"
           id="path132"
           style="stroke-width:0.264583" /><path
           d="m 115.75725,152.73859 c -0.33205,-0.16875 -0.55589,-0.47611 -0.55616,-0.76422 -2.6e-4,-0.11814 0.10134,-0.31853 0.26803,-0.52962 0.51884,-0.65616 0.75353,-1.32566 0.75485,-2.15235 8e-4,-0.50512 -0.0513,-0.33994 1.10914,-3.52169 0.1852,-0.50774 0.40401,-1.1001 0.48656,-1.31635 l 0.14976,-0.3932 0.65008,0.001 c 0.8509,0.001 0.88609,0.025 0.72628,0.49087 -0.0683,0.19957 -0.16272,0.45517 -0.20981,0.568 -0.0468,0.11283 -0.12383,0.31285 -0.17092,0.44448 -0.0468,0.13164 -0.1106,0.30089 -0.14156,0.37611 -0.0307,0.0752 -0.13864,0.36755 -0.23997,0.64963 -0.10134,0.28206 -0.34687,0.92828 -0.54557,1.43602 -1.28059,3.27115 -1.43061,3.80407 -1.1176,3.97153 0.23733,0.12694 0.72125,0.0355 0.99827,-0.18868 0.27225,-0.22037 0.25506,-0.1937 0.58182,-0.9108 0.28178,-0.61926 0.77655,-1.2296 1.4134,-1.74413 0.54028,-0.43665 1.47347,-1.01442 1.82642,-1.13091 0.27966,-0.0923 0.65855,-0.0377 0.81359,0.11731 0.0881,0.0881 0.14156,0.0941 0.27887,0.0315 0.1958,-0.0892 1.36869,-0.10592 1.42188,-0.0203 0.0193,0.0315 -0.19633,0.63921 -0.47916,1.35054 -0.46938,1.17999 -0.70697,1.92667 -0.70962,2.22874 -0.002,0.18902 0.19765,0.32975 0.4654,0.32856 0.23416,-0.001 0.48922,-0.12044 0.93002,-0.43553 0.0992,-0.0709 0.20002,-0.10951 0.22357,-0.0858 0.17092,0.17084 -0.65273,0.90858 -1.2782,1.14477 -0.57732,0.21807 -0.99193,0.23723 -1.44384,0.0667 -0.21113,-0.0797 -0.43841,-0.20505 -0.50482,-0.27861 -0.11615,-0.12819 -0.11483,-0.14811 0.0296,-0.48387 0.0828,-0.19261 0.13441,-0.3665 0.1143,-0.38647 -0.0198,-0.0199 -0.19843,0.10959 -0.39687,0.28786 -0.72681,0.65358 -1.37557,0.99449 -1.88489,0.99066 -0.4879,-0.004 -0.97023,-0.3632 -1.12977,-0.84254 -0.0119,-0.0351 -0.11034,0.0187 -0.21908,0.1194 -0.10848,0.10073 -0.4236,0.29496 -0.70009,0.43159 -0.64584,0.31914 -1.09326,0.36335 -1.51394,0.14962 z m 5.16308,-0.95858 c 0.30929,-0.18775 0.74771,-0.80066 1.0877,-1.52072 0.38338,-0.81227 0.41698,-0.95766 0.27252,-1.17827 -0.12647,-0.19296 -0.48366,-0.36989 -0.74665,-0.36989 -0.25744,0 -0.80407,0.66487 -1.20518,1.46553 -0.60219,1.2028 -0.53446,1.90246 0.17171,1.77168 0.11272,-0.0209 0.30163,-0.0967 0.4199,-0.16833 z"
           fill="#eaeaea"
           id="path134"
           style="stroke-width:0.264583" /></g><path
         d="M 57.115926,58.942111 C 49.917162,58.720635 48.546949,58.32596 46.806583,55.972459 45.655253,54.415483 45.57837,54.15516 44.757572,49.03898 43.928051,43.868296 43.285956,42.06377 41.84385,40.850265 c -1.188458,-0.999937 -3.559277,-1.82018 -4.366222,-1.510428 -0.325668,0.12513 -1.491841,3.108243 -2.961514,7.576699 l -2.424294,7.370409 0.725484,0.725631 c 0.399128,0.39897 1.7599,1.079836 3.024136,1.51289 1.453327,0.497927 2.298509,0.984544 2.298509,1.323771 0,0.463372 -1.511513,0.549552 -11.036811,0.631283 -10.148137,0.08691 -11.027455,0.04713 -10.92009,-0.503162 0.0699,-0.358129 0.874125,-0.855323 2.003377,-1.238899 2.626244,-0.892287 3.905034,-1.901597 4.870044,-3.844085 0.45609,-0.918205 2.320806,-5.938831 4.143819,-11.157318 1.823002,-5.218331 3.931513,-11.11805 4.685538,-13.110541 1.582161,-4.180226 2.226329,-7.177208 1.738701,-8.088344 -0.182312,-0.340853 -1.335437,-0.927211 -2.562546,-1.303457 -2.455463,-0.752911 -3.115563,-1.653262 -1.507852,-2.056787 0.522325,-0.130898 6.212366,-0.154456 12.644501,-0.05236 9.804949,0.15655 11.971293,0.285351 13.404949,0.799456 6.073895,2.17742 7.146956,10.342416 1.982381,15.083502 -1.853683,1.701536 -5.325963,3.435533 -8.167788,4.078598 -4.041366,0.914591 -3.961158,0.85281 -2.247669,1.730961 3.707924,1.900496 4.817279,3.716646 6.358855,10.410587 1.132492,4.917165 1.636187,5.963231 3.240239,6.728181 1.50625,0.718304 1.803257,0.484839 1.282796,-1.007945 -0.966255,-2.771843 0.0052,-6.736875 2.611034,-10.656514 3.833154,-5.765788 11.680519,-10.761752 16.937636,-10.782958 1.583684,-0.0052 2.059263,0.161265 3.132736,1.103659 1.682463,1.47718 1.750204,3.355113 0.208752,5.785631 -1.867537,2.944886 -5.336079,4.963713 -11.244699,6.544877 -1.770705,0.473842 -3.34996,1.067111 -3.509406,1.318274 -0.159326,0.250796 -0.29216,1.29 -0.295197,2.308735 -0.01312,4.50521 4.364558,6.002551 9.864932,3.374222 2.633616,-1.258429 3.58962,-2.291875 3.904082,-4.220644 0.134662,-0.825218 0.807081,-2.673776 1.494334,-4.107814 1.546005,-3.225998 5.986897,-7.773409 9.256644,-9.478454 4.166188,-2.172602 8.851145,-3.368097 9.957469,-2.5411 0.82313,0.615366 0.43248,1.003706 -2.393393,2.377375 -5.471843,2.660216 -9.280477,8.388986 -10.059022,15.130625 -0.570746,4.942246 1.45527,6.733994 4.501845,3.98163 2.992569,-2.703568 5.167894,-6.589906 7.579564,-13.540977 2.332456,-6.722475 3.188196,-10.976212 3.169186,-15.751854 -0.0157,-4.341016 -0.28273,-5.29137 -2.40324,-8.606063 -0.69997,-1.094337 -1.301779,-2.422821 -1.337068,-2.952215 -0.05812,-0.868622 0.06755,-0.973391 1.287228,-1.074128 1.53948,-0.127235 4.45567,1.069155 6.1969,2.542251 0.60715,0.513635 1.65447,1.949191 2.32733,3.190027 1.17318,2.164016 1.22293,2.409681 1.2167,6.015537 -0.005,3.875499 -0.2173,5.051778 -2.04972,11.457174 -2.21371,7.737805 -3.48805,13.727895 -3.49067,16.40764 -0.003,2.423713 0.077,2.702991 1.04397,3.669836 1.66844,1.668446 4.07817,1.245917 6.71514,-1.177535 0.42882,-0.394257 0.99282,-0.644006 1.25299,-0.554943 0.67395,0.230899 -1.58562,2.273025 -3.701,3.344954 -2.29532,1.163085 -5.0889,1.185023 -6.78247,0.0534 -1.08329,-0.723957 -2.45021,-2.85928 -2.98547,-4.66391 -0.16178,-0.545939 -0.531117,-0.360224 -2.43329,1.223612 -1.233349,1.026952 -3.064578,2.243967 -4.06933,2.704404 -2.148921,0.984699 -6.74787,1.647292 -9.186986,1.323666 -2.060652,-0.27331 -3.17167,-1.078998 -4.415953,-3.202279 -0.510911,-0.871605 -1.118366,-1.584933 -1.349988,-1.584933 -0.231736,0 -1.525224,0.804902 -2.874657,1.788607 -3.082038,2.246951 -7.111628,3.614233 -10.349511,3.511611 -1.2206,-0.03664 -5.119279,-0.159691 -8.663869,-0.268597 z M 69.933507,44.373394 c 3.201037,-1.637346 4.702575,-3.615123 4.483556,-5.905584 -0.270116,-2.824252 -3.178734,-0.992868 -5.575455,3.510512 -0.640016,1.202457 -1.163661,2.365123 -1.163661,2.583719 0,0.5684 0.927326,0.490596 2.25556,-0.188489 z M 41.86837,36.172899 c 3.084395,-0.72715 5.506467,-2.104852 7.397142,-4.207608 1.797299,-1.999141 2.296011,-3.440299 2.298781,-6.643677 0.0026,-3.029497 -0.761921,-4.601866 -2.656052,-5.462163 -1.871696,-0.850087 -3.864464,-0.872705 -4.579419,-0.05236 -0.300327,0.344516 -1.303441,2.721106 -2.229381,5.281055 -0.925802,2.560001 -2.061482,5.630284 -2.523621,6.823004 -0.462271,1.192772 -0.951988,2.763569 -1.088438,3.490878 -0.293678,1.565822 -0.141007,1.600693 3.380988,0.770501 z"
         fill="#eaeaea"
         id="path136"
         style="stroke-width:1.38531" /></g></g></svg>
