<svg width="267" height="234" viewBox="0 0 267 234" fill="none" xmlns="http://www.w3.org/2000/svg">
<path d="M0 100C0 44.7715 44.7715 0 100 0H167C222.228 0 267 44.7715 267 100V134C267 189.228 222.228 234 167 234H8C3.58172 234 0 230.418 0 226V100Z" fill="#CB2823"/>
<path d="M14 108C14 54.9807 56.9807 12 110 12H157C210.019 12 253 54.9807 253 108V126C253 179.019 210.019 222 157 222H18C15.7909 222 14 220.209 14 218V108Z" stroke="black" stroke-width="8"/>
<path d="M83.38 46.96H93.52V91H82.54L68.14 65.32V91H58V47.08H69.04L83.38 72.7V46.96ZM118.094 46.9C121.134 46.9 123.994 47.48 126.674 48.64C129.354 49.8 131.694 51.38 133.694 53.38C135.694 55.34 137.274 57.66 138.434 60.34C139.594 63.02 140.174 65.88 140.174 68.92C140.174 71.96 139.594 74.82 138.434 77.5C137.274 80.18 135.694 82.52 133.694 84.52C131.694 86.48 129.354 88.04 126.674 89.2C123.994 90.36 121.134 90.94 118.094 90.94C115.054 90.94 112.194 90.36 109.514 89.2C106.834 88.04 104.494 86.48 102.494 84.52C100.534 82.52 98.9742 80.18 97.8142 77.5C96.6542 74.82 96.0742 71.96 96.0742 68.92C96.0742 65.88 96.6542 63.02 97.8142 60.34C98.9742 57.66 100.534 55.34 102.494 53.38C104.494 51.38 106.834 49.8 109.514 48.64C112.194 47.48 115.054 46.9 118.094 46.9ZM118.094 80.8C119.734 80.8 121.274 80.5 122.714 79.9C124.154 79.26 125.414 78.4 126.494 77.32C127.574 76.24 128.414 74.98 129.014 73.54C129.654 72.1 129.974 70.56 129.974 68.92C129.974 67.28 129.654 65.74 129.014 64.3C128.414 62.86 127.574 61.6 126.494 60.52C125.414 59.44 124.154 58.6 122.714 58C121.274 57.36 119.734 57.04 118.094 57.04C116.454 57.04 114.914 57.36 113.474 58C112.034 58.6 110.774 59.44 109.694 60.52C108.614 61.6 107.754 62.86 107.114 64.3C106.514 65.74 106.214 67.28 106.214 68.92C106.214 70.56 106.514 72.1 107.114 73.54C107.754 74.98 108.614 76.24 109.694 77.32C110.774 78.4 112.034 79.26 113.474 79.9C114.914 80.5 116.454 80.8 118.094 80.8ZM178.651 46.78V56.98H170.191V91H160.051V56.98H151.651V46.78H178.651ZM210.58 57.1H192.46V63.76H207.16V73.9H192.46V80.86H210.58V91H182.32V47.02L210.58 46.96V57.1Z" fill="white"/>
<path d="M86.445 111.485C86.445 113.735 86.025 115.85 85.185 117.83C84.345 119.78 83.19 121.505 81.72 123.005L83.655 125.795L77.4 130.115L75.285 127.1C74.445 127.37 73.575 127.58 72.675 127.73C71.805 127.88 70.905 127.955 69.975 127.955C67.695 127.955 65.55 127.52 63.54 126.65C61.56 125.78 59.82 124.61 58.32 123.14C56.85 121.64 55.68 119.9 54.81 117.92C53.94 115.91 53.505 113.765 53.505 111.485C53.505 109.205 53.94 107.075 54.81 105.095C55.68 103.085 56.85 101.345 58.32 99.875C59.82 98.375 61.56 97.19 63.54 96.32C65.55 95.45 67.695 95.015 69.975 95.015C72.255 95.015 74.385 95.45 76.365 96.32C78.375 97.19 80.115 98.375 81.585 99.875C83.085 101.345 84.27 103.085 85.14 105.095C86.01 107.075 86.445 109.205 86.445 111.485ZM69.975 120.35C70.275 120.35 70.5 120.335 70.65 120.305L66.78 114.68L73.08 110.36L77.265 116.48C77.775 115.79 78.165 115.025 78.435 114.185C78.705 113.315 78.84 112.415 78.84 111.485C78.84 110.285 78.6 109.145 78.12 108.065C77.67 106.985 77.04 106.04 76.23 105.23C75.45 104.42 74.52 103.79 73.44 103.34C72.36 102.86 71.205 102.62 69.975 102.62C68.745 102.62 67.59 102.86 66.51 103.34C65.43 103.79 64.485 104.42 63.675 105.23C62.895 106.04 62.265 106.985 61.785 108.065C61.335 109.145 61.11 110.285 61.11 111.485C61.11 112.715 61.335 113.87 61.785 114.95C62.265 116.03 62.895 116.975 63.675 117.785C64.485 118.565 65.43 119.195 66.51 119.675C67.59 120.125 68.745 120.35 69.975 120.35ZM100.797 128C99.1172 128 97.5272 127.7 96.0272 127.1C94.5272 126.47 93.1922 125.585 92.0222 124.445C90.8222 123.245 89.8922 121.895 89.2322 120.395C88.6022 118.895 88.2722 117.29 88.2422 115.58V94.925H95.8472V115.535C95.8472 116.855 96.3422 118.01 97.3322 119C98.3222 119.93 99.4922 120.395 100.842 120.395C101.502 120.395 102.132 120.26 102.732 119.99C103.332 119.72 103.857 119.36 104.307 118.91C104.757 118.46 105.102 117.935 105.342 117.335C105.582 116.735 105.702 116.09 105.702 115.4V94.925H113.307V115.355C113.337 117.065 113.022 118.685 112.362 120.215C111.732 121.745 110.847 123.08 109.707 124.22C108.597 125.36 107.277 126.275 105.747 126.965C104.247 127.625 102.642 127.97 100.932 128H100.797ZM138.561 102.575H124.971V107.57H135.996V115.175H124.971V120.395H138.561V128H117.366V95.015L138.561 94.97V102.575ZM149.041 94.835C151.231 94.955 153.286 95.48 155.206 96.41C157.156 97.34 158.836 98.555 160.246 100.055C161.686 101.555 162.811 103.295 163.621 105.275C164.461 107.255 164.881 109.37 164.881 111.62C164.881 113.84 164.476 115.925 163.666 117.875C162.856 119.795 161.731 121.49 160.291 122.96C158.881 124.43 157.216 125.615 155.296 126.515C153.376 127.385 151.291 127.88 149.041 128H141.436V94.79H149.041V94.835ZM149.041 120.35C150.211 120.23 151.291 119.93 152.281 119.45C153.301 118.94 154.171 118.31 154.891 117.56C155.641 116.78 156.226 115.88 156.646 114.86C157.066 113.84 157.276 112.76 157.276 111.62C157.276 110.45 157.066 109.34 156.646 108.29C156.226 107.21 155.641 106.265 154.891 105.455C154.141 104.615 153.271 103.94 152.281 103.43C151.291 102.89 150.211 102.56 149.041 102.44V120.35ZM187.341 102.575H173.751V107.57H184.776V115.175H173.751V120.395H187.341V128H166.146V95.015L187.341 94.97V102.575ZM201.06 128.63C200.01 128.63 198.96 128.48 197.91 128.18C196.89 127.91 195.915 127.475 194.985 126.875C193.365 125.825 192.105 124.475 191.205 122.825C190.305 121.145 189.855 119.315 189.855 117.335H197.46C197.46 118.235 197.655 118.94 198.045 119.45C198.435 119.93 198.78 120.26 199.08 120.44C199.62 120.8 200.205 120.995 200.835 121.025C201.465 121.055 202.08 120.935 202.68 120.665C203.1 120.485 203.43 120.26 203.67 119.99C203.94 119.72 204.135 119.465 204.255 119.225C204.405 118.955 204.495 118.7 204.525 118.46C204.555 118.22 204.57 118.025 204.57 117.875C204.57 117.725 204.555 117.53 204.525 117.29C204.495 117.05 204.405 116.795 204.255 116.525C204.135 116.255 203.94 116 203.67 115.76C203.43 115.49 203.1 115.25 202.68 115.04C202.35 114.89 201.99 114.755 201.6 114.635C201.24 114.515 200.85 114.38 200.43 114.23C199.68 113.99 198.9 113.72 198.09 113.42C197.28 113.12 196.47 112.715 195.66 112.205C194.61 111.545 193.725 110.72 193.005 109.73C192.285 108.74 191.76 107.675 191.43 106.535C191.13 105.395 191.025 104.225 191.115 103.025C191.235 101.795 191.58 100.625 192.15 99.515C192.69 98.495 193.365 97.61 194.175 96.86C194.985 96.11 195.885 95.525 196.875 95.105C197.865 94.655 198.93 94.385 200.07 94.295C201.21 94.205 202.365 94.31 203.535 94.61C204.675 94.88 205.71 95.315 206.64 95.915C207.57 96.485 208.365 97.19 209.025 98.03C209.715 98.84 210.24 99.755 210.6 100.775C210.96 101.795 211.14 102.86 211.14 103.97H203.535C203.535 103.28 203.31 102.8 202.86 102.53C202.44 102.26 202.065 102.08 201.735 101.99C201.675 101.99 201.525 101.975 201.285 101.945C201.075 101.885 200.82 101.885 200.52 101.945C200.25 101.975 199.965 102.08 199.665 102.26C199.365 102.41 199.125 102.665 198.945 103.025C198.705 103.505 198.66 104.015 198.81 104.555C198.96 105.065 199.26 105.47 199.71 105.77C200.13 106.01 200.595 106.235 201.105 106.445C201.615 106.625 202.155 106.805 202.725 106.985C203.235 107.135 203.745 107.3 204.255 107.48C204.795 107.66 205.335 107.87 205.875 108.11C207.855 109.01 209.4 110.33 210.51 112.07C211.65 113.81 212.22 115.745 212.22 117.875C212.22 119.975 211.65 121.895 210.51 123.635C209.4 125.375 207.855 126.695 205.875 127.595C205.095 127.955 204.3 128.21 203.49 128.36C202.68 128.54 201.87 128.63 201.06 128.63Z" fill="white"/>
<path d="M74.882 169.954C72.7047 169.954 70.5733 169.555 68.488 168.758C66.4333 167.93 64.578 166.688 62.922 165.032C61.3273 163.407 60.1007 161.582 59.242 159.558C58.414 157.503 58 155.341 58 153.072C58 150.772 58.414 148.61 59.242 146.586C60.1007 144.531 61.3273 142.707 62.922 141.112C64.578 139.456 66.4487 138.214 68.534 137.386C70.6193 136.558 72.7353 136.144 74.882 136.144C77.0593 136.144 79.1753 136.558 81.23 137.386C83.3153 138.214 85.186 139.456 86.842 141.112L81.368 146.586C80.4787 145.697 79.4667 145.037 78.332 144.608C77.1973 144.148 76.0473 143.918 74.882 143.918C73.7167 143.918 72.5667 144.148 71.432 144.608C70.328 145.037 69.3313 145.697 68.442 146.586C67.5833 147.475 66.924 148.472 66.464 149.576C66.004 150.68 65.774 151.845 65.774 153.072C65.774 154.299 66.004 155.464 66.464 156.568C66.924 157.641 67.5833 158.623 68.442 159.512C69.3313 160.401 70.328 161.076 71.432 161.536C72.5667 161.965 73.7167 162.18 74.882 162.18C76.0473 162.18 77.1973 161.965 78.332 161.536C79.4667 161.076 80.4787 160.401 81.368 159.512L86.842 165.032C85.186 166.688 83.3307 167.93 81.276 168.758C79.2213 169.555 77.09 169.954 74.882 169.954ZM103.722 136.19C106.053 136.19 108.245 136.635 110.3 137.524C112.355 138.413 114.149 139.625 115.682 141.158C117.215 142.661 118.427 144.439 119.316 146.494C120.205 148.549 120.65 150.741 120.65 153.072C120.65 155.403 120.205 157.595 119.316 159.65C118.427 161.705 117.215 163.499 115.682 165.032C114.149 166.535 112.355 167.731 110.3 168.62C108.245 169.509 106.053 169.954 103.722 169.954C101.391 169.954 99.1985 169.509 97.1438 168.62C95.0892 167.731 93.2952 166.535 91.7618 165.032C90.2592 163.499 89.0632 161.705 88.1738 159.65C87.2845 157.595 86.8398 155.403 86.8398 153.072C86.8398 150.741 87.2845 148.549 88.1738 146.494C89.0632 144.439 90.2592 142.661 91.7618 141.158C93.2952 139.625 95.0892 138.413 97.1438 137.524C99.1985 136.635 101.391 136.19 103.722 136.19ZM103.722 162.18C104.979 162.18 106.16 161.95 107.264 161.49C108.368 160.999 109.334 160.34 110.162 159.512C110.99 158.684 111.634 157.718 112.094 156.614C112.585 155.51 112.83 154.329 112.83 153.072C112.83 151.815 112.585 150.634 112.094 149.53C111.634 148.426 110.99 147.46 110.162 146.632C109.334 145.804 108.368 145.16 107.264 144.7C106.16 144.209 104.979 143.964 103.722 143.964C102.465 143.964 101.284 144.209 100.18 144.7C99.0758 145.16 98.1098 145.804 97.2818 146.632C96.4538 147.46 95.7945 148.426 95.3038 149.53C94.8438 150.634 94.6138 151.815 94.6138 153.072C94.6138 154.329 94.8438 155.51 95.3038 156.614C95.7945 157.718 96.4538 158.684 97.2818 159.512C98.1098 160.34 99.0758 160.999 100.18 161.49C101.284 161.95 102.465 162.18 103.722 162.18ZM142.424 136.236H150.198V170H141.78L130.74 150.312V170H122.966V136.328H131.43L142.424 155.97V136.236ZM183.433 144.01H169.541V149.116H180.811V156.89H169.541V162.226H183.433V170H161.767V136.282L183.433 136.236V144.01ZM207.531 170H187.429V136.19H195.203V162.226H207.531V170Z" fill="white"/>
<path d="M75.86 206L74.758 202.618H65.98L64.84 206H58.038L67.538 178.108H73.618L82.624 206H75.86ZM68.184 196.196H72.706L70.502 189.432L68.184 196.196ZM100.615 178.108H107.037V206H100.083L90.9626 189.736V206H84.5406V178.184H91.5326L100.615 194.41V178.108ZM126.552 177.994V184.454H121.194V206H114.772V184.454H109.452V177.994H126.552ZM141.341 178.07C143.266 178.07 145.077 178.437 146.775 179.172C148.472 179.907 149.954 180.907 151.221 182.174C152.487 183.415 153.488 184.885 154.223 186.582C154.957 188.279 155.325 190.091 155.325 192.016C155.325 193.941 154.957 195.753 154.223 197.45C153.488 199.147 152.487 200.629 151.221 201.896C149.954 203.137 148.472 204.125 146.775 204.86C145.077 205.595 143.266 205.962 141.341 205.962C139.415 205.962 137.604 205.595 135.907 204.86C134.209 204.125 132.727 203.137 131.461 201.896C130.219 200.629 129.231 199.147 128.497 197.45C127.762 195.753 127.395 193.941 127.395 192.016C127.395 190.091 127.762 188.279 128.497 186.582C129.231 184.885 130.219 183.415 131.461 182.174C132.727 180.907 134.209 179.907 135.907 179.172C137.604 178.437 139.415 178.07 141.341 178.07ZM141.341 199.54C142.379 199.54 143.355 199.35 144.267 198.97C145.179 198.565 145.977 198.02 146.661 197.336C147.345 196.652 147.877 195.854 148.257 194.942C148.662 194.03 148.865 193.055 148.865 192.016C148.865 190.977 148.662 190.002 148.257 189.09C147.877 188.178 147.345 187.38 146.661 186.696C145.977 186.012 145.179 185.48 144.267 185.1C143.355 184.695 142.379 184.492 141.341 184.492C140.302 184.492 139.327 184.695 138.415 185.1C137.503 185.48 136.705 186.012 136.021 186.696C135.337 187.38 134.792 188.178 134.387 189.09C134.007 190.002 133.817 190.977 133.817 192.016C133.817 193.055 134.007 194.03 134.387 194.942C134.792 195.854 135.337 196.652 136.021 197.336C136.705 198.02 137.503 198.565 138.415 198.97C139.327 199.35 140.302 199.54 141.341 199.54ZM176.2 177.652V195.474C176.2 196.943 175.909 198.324 175.326 199.616C174.769 200.883 174.009 201.997 173.046 202.96C172.109 203.897 170.994 204.645 169.702 205.202C168.435 205.734 167.08 206 165.636 206H165.522C164.078 205.975 162.723 205.696 161.456 205.164C160.189 204.607 159.049 203.821 158.036 202.808C157.048 201.795 156.288 200.655 155.756 199.388C155.249 198.096 155.009 196.728 155.034 195.284L161.456 195.36C161.456 196.5 161.849 197.488 162.634 198.324C163.47 199.16 164.458 199.578 165.598 199.578C166.155 199.578 166.687 199.477 167.194 199.274C167.701 199.071 168.144 198.78 168.524 198.4C168.904 198.02 169.208 197.577 169.436 197.07C169.664 196.563 169.778 196.019 169.778 195.436V177.652H176.2ZM192.032 178.07C193.957 178.07 195.769 178.437 197.466 179.172C199.163 179.907 200.645 180.907 201.912 182.174C203.179 183.415 204.179 184.885 204.914 186.582C205.649 188.279 206.016 190.091 206.016 192.016C206.016 193.941 205.649 195.753 204.914 197.45C204.179 199.147 203.179 200.629 201.912 201.896C200.645 203.137 199.163 204.125 197.466 204.86C195.769 205.595 193.957 205.962 192.032 205.962C190.107 205.962 188.295 205.595 186.598 204.86C184.901 204.125 183.419 203.137 182.152 201.896C180.911 200.629 179.923 199.147 179.188 197.45C178.453 195.753 178.086 193.941 178.086 192.016C178.086 190.091 178.453 188.279 179.188 186.582C179.923 184.885 180.911 183.415 182.152 182.174C183.419 180.907 184.901 179.907 186.598 179.172C188.295 178.437 190.107 178.07 192.032 178.07ZM192.032 199.54C193.071 199.54 194.046 199.35 194.958 198.97C195.87 198.565 196.668 198.02 197.352 197.336C198.036 196.652 198.568 195.854 198.948 194.942C199.353 194.03 199.556 193.055 199.556 192.016C199.556 190.977 199.353 190.002 198.948 189.09C198.568 188.178 198.036 187.38 197.352 186.696C196.668 186.012 195.87 185.48 194.958 185.1C194.046 184.695 193.071 184.492 192.032 184.492C190.993 184.492 190.018 184.695 189.106 185.1C188.194 185.48 187.396 186.012 186.712 186.696C186.028 187.38 185.483 188.178 185.078 189.09C184.698 190.002 184.508 190.977 184.508 192.016C184.508 193.055 184.698 194.03 185.078 194.942C185.483 195.854 186.028 196.652 186.712 197.336C187.396 198.02 188.194 198.565 189.106 198.97C190.018 199.35 190.993 199.54 192.032 199.54Z" fill="white"/>
<path d="M26 187L51 212H26V187Z" fill="black"/>
</svg>
