<svg width="149" height="34" viewBox="0 0 149 34" fill="none" xmlns="http://www.w3.org/2000/svg">
<path d="M78.4349 32.9776C73.9589 31.0904 72.1193 27.2354 72.8073 21.1849C73.4063 15.9172 76.7784 10.0307 81.1856 6.5594C83.4 4.81519 86.9703 3.06525 89.5881 2.44101C93.0921 1.60544 99.4163 2.26272 100.84 3.61043C101.294 4.04041 101.268 4.21876 100.102 8.68255C98.7929 13.6925 98.5995 14.2136 98.0493 14.2136C97.4979 14.2136 97.3839 13.878 97.1432 11.5449C96.7116 7.36136 95.5668 5.16104 93.3347 4.22449C88.3816 2.14629 81.9262 8.77599 80.0796 17.8375C78.6161 25.019 80.3826 29.4114 85.0135 30.1059C86.4561 30.3222 88.8418 29.9047 90.3584 29.1705C91.8657 28.4408 94.504 25.7993 96.9332 22.5878C99.461 19.2458 101.339 17.5905 104.274 16.1177C106.357 15.0721 106.877 14.9208 108.797 14.8014C110.667 14.685 111.132 14.7444 112.17 15.233C114.005 16.096 114.713 17.2965 114.713 19.5435C114.713 21.901 114.196 23.5766 112.884 25.4713C110.779 28.5094 108.11 30.7681 104.735 32.3661C103.156 33.1141 102.705 33.2095 100.757 33.2069C98.9384 33.2046 98.3375 33.0932 97.2678 32.5608C95.8092 31.8348 94.8238 30.4073 94.8167 29.01C94.8144 28.548 94.7492 28.17 94.6719 28.17C94.5946 28.17 93.8665 28.7225 93.0539 29.3977C89.3052 32.5126 87.1836 33.3754 82.9237 33.5177C80.2164 33.6082 79.8163 33.56 78.4349 32.9776V32.9776ZM104.538 30.6072C106.758 28.254 108.738 23.0728 108.76 19.5637C108.775 17.0403 107.734 15.8678 106.187 16.6675C103.3 18.1603 99.8001 28.6461 101.418 30.9555C102.077 31.8968 103.468 31.7415 104.538 30.6072Z" fill="#EAEAEA"/>
<path d="M115.143 32.7966C113.888 32.1588 113.042 30.9971 113.041 29.9082C113.04 29.4617 113.424 28.7043 114.054 27.9065C116.015 25.4265 116.902 22.8961 116.907 19.7716C116.91 17.8625 116.713 18.4868 121.099 6.4613C121.799 4.54229 122.626 2.30345 122.938 1.4861L123.504 0L125.961 0.00395648C129.177 0.00913621 129.31 0.0985863 128.706 1.85921C128.448 2.6135 128.091 3.57956 127.913 4.006C127.736 4.43245 127.445 5.18842 127.267 5.68594C127.09 6.18346 126.849 6.82313 126.732 7.10743C126.616 7.39172 126.208 8.4966 125.825 9.56272C125.442 10.6288 124.514 13.0712 123.763 14.9902C118.923 27.3536 118.356 29.3678 119.539 30.0007C120.436 30.4805 122.265 30.1348 123.312 29.2876C124.341 28.4547 124.276 28.5555 125.511 25.8452C126.576 23.5047 128.446 21.1979 130.853 19.2532C132.895 17.6029 136.422 15.4192 137.756 14.9789C138.813 14.63 140.245 14.8365 140.831 15.4223C141.164 15.7552 141.366 15.778 141.885 15.5414C142.625 15.2043 147.058 15.1411 147.259 15.4648C147.332 15.5837 146.517 17.8807 145.448 20.5692C143.674 25.029 142.776 27.8511 142.766 28.9928C142.759 29.7072 143.513 30.2391 144.525 30.2346C145.41 30.2307 146.374 29.7794 148.04 28.5885C148.415 28.3205 148.796 28.1746 148.885 28.2644C149.531 28.9101 146.418 31.6984 144.054 32.5911C141.872 33.4153 140.305 33.4877 138.597 32.8433C137.799 32.5421 136.94 32.0683 136.689 31.7903C136.25 31.3058 136.255 31.2305 136.801 29.9615C137.114 29.2335 137.309 28.5763 137.233 28.5008C137.158 28.4254 136.483 28.915 135.733 29.5888C132.986 32.059 130.534 33.3475 128.609 33.333C126.765 33.3191 124.942 31.9603 124.339 30.1486C124.294 30.0161 123.922 30.2192 123.511 30.5999C123.101 30.9806 121.91 31.7147 120.865 32.2311C118.424 33.4373 116.733 33.6044 115.143 32.7966V32.7966ZM134.657 29.1736C135.826 28.464 137.483 26.1475 138.768 23.426C140.217 20.356 140.344 19.8065 139.798 18.9727C139.32 18.2434 137.97 17.5747 136.976 17.5747C136.003 17.5747 133.937 20.0876 132.421 23.1137C130.145 27.6597 130.401 30.3041 133.07 29.8098C133.496 29.7308 134.21 29.4445 134.657 29.1736Z" fill="#EAEAEA"/>
<path d="M29.5534 33.0948C24.3569 32.935 23.3678 32.65 22.1115 30.9511C21.2804 29.8272 21.2249 29.6393 20.6324 25.9461C20.0336 22.2136 19.5701 20.911 18.5291 20.035C17.6712 19.3132 15.9598 18.7211 15.3773 18.9447C15.1422 19.0349 14.3004 21.1884 13.2395 24.414L11.4895 29.7344L12.0132 30.2582C12.3013 30.5462 13.2836 31.0377 14.1962 31.3503C15.2453 31.7096 15.8554 32.061 15.8554 32.3059C15.8554 32.6402 14.7643 32.7026 7.88837 32.7616C0.562837 32.8245 -0.0719091 32.7952 0.00559226 32.3984C0.056044 32.14 0.63659 31.781 1.45175 31.5041C3.34753 30.86 4.27064 30.1314 4.96724 28.7292C5.29648 28.0664 6.64254 24.4422 7.9585 20.6752C9.27445 16.9083 10.7965 12.6495 11.3408 11.2112C12.4829 8.19367 12.9479 6.03029 12.5959 5.37256C12.4643 5.12664 11.6319 4.70323 10.7461 4.43165C8.9736 3.88817 8.4971 3.23821 9.65764 2.94693C10.0347 2.8523 14.1421 2.83543 18.7852 2.90945C25.863 3.02228 27.4268 3.11553 28.4617 3.48652C32.8462 5.05833 33.6208 10.9523 29.8927 14.3747C28.5546 15.603 26.0481 16.8547 23.9967 17.3189C21.0794 17.9791 21.1373 17.9345 22.3742 18.5684C25.0508 19.9403 25.8516 21.2513 26.9644 26.0834C27.7819 29.6329 28.1455 30.388 29.3034 30.9402C30.3907 31.4587 30.6051 31.2903 30.2294 30.2126C29.5319 28.2117 30.2332 25.3495 32.1142 22.5201C34.8812 18.358 40.5459 14.7516 44.3408 14.7363C45.484 14.7317 45.8273 14.8526 46.6022 15.533C47.8167 16.5993 47.8656 17.9549 46.7529 19.7094C45.4048 21.8352 42.901 23.2925 38.6358 24.4339C37.3576 24.776 36.2176 25.2042 36.1025 25.3855C35.9875 25.5667 35.8916 26.3167 35.8894 27.0521C35.8798 30.3042 39.04 31.3851 43.0105 29.4878C44.9116 28.5794 45.6017 27.8334 45.8287 26.4411C45.9259 25.8454 46.4113 24.511 46.9074 23.4758C48.0234 21.1471 51.2291 17.8645 53.5894 16.6337C56.5968 15.0654 59.9787 14.2024 60.7773 14.7994C61.3715 15.2436 61.0894 15.5239 59.0496 16.5155C55.0997 18.4358 52.3504 22.5712 51.7884 27.4377C51.3764 31.0053 52.8389 32.2987 55.0381 30.3119C57.1983 28.3603 58.7686 25.5549 60.5095 20.5372C62.1932 15.6845 62.8109 12.6139 62.7972 9.16656C62.7846 6.03294 62.593 5.34695 61.0624 2.95419C60.5571 2.16424 60.1227 1.20526 60.0972 0.823121C60.0552 0.196093 60.1459 0.120457 61.0264 0.0477185C62.1377 -0.044089 64.2428 0.819501 65.4997 1.88289C65.938 2.25368 66.694 3.28992 67.1797 4.18565C68.0266 5.74774 68.0625 5.92509 68.058 8.528C68.0532 11.3256 67.9013 12.1747 66.5784 16.7985C64.9804 22.3841 64.0605 26.7081 64.0586 28.6425C64.0567 30.3921 64.1142 30.5937 64.8122 31.2916C66.0166 32.496 67.7561 32.191 69.6596 30.4416C69.9692 30.157 70.3763 29.9767 70.5641 30.041C71.0506 30.2076 69.4195 31.6818 67.8925 32.4556C66.2356 33.2952 64.219 33.311 62.9965 32.494C62.2145 31.9714 61.2278 30.43 60.8414 29.1273C60.7246 28.7332 60.458 28.8672 59.0849 30.0106C58.1946 30.7519 56.8727 31.6304 56.1474 31.9628C54.5962 32.6736 51.2764 33.1519 49.5157 32.9183C48.0282 32.721 47.2262 32.1394 46.328 30.6067C45.9592 29.9775 45.5207 29.4626 45.3535 29.4626C45.1862 29.4626 44.2525 30.0436 43.2784 30.7537C41.0536 32.3757 38.1448 33.3627 35.8075 33.2886C34.9264 33.2607 32.1121 33.1735 29.5534 33.0948V33.0948ZM38.8059 22.5782C41.1166 21.3963 42.2005 19.9686 42.0424 18.3152C41.8474 16.2765 39.7478 17.5985 38.0177 20.8493C37.5557 21.7173 37.1777 22.5566 37.1777 22.7144C37.1777 23.1247 37.8471 23.0687 38.8059 22.5782ZM18.5468 16.6586C20.7733 16.1337 22.5217 15.1392 23.8865 13.6213C25.1839 12.1782 25.5439 11.1379 25.5459 8.82551C25.5478 6.63862 24.9959 5.50358 23.6286 4.88257C22.2775 4.26892 20.839 4.2526 20.3229 4.84506C20.1061 5.09382 19.382 6.8093 18.7136 8.65723C18.0453 10.5052 17.2255 12.7215 16.8919 13.5825C16.5582 14.4435 16.2047 15.5774 16.1062 16.1024C15.8942 17.2327 16.0044 17.2579 18.5468 16.6586V16.6586Z" fill="#EAEAEA"/>
</svg>
